{"title":"Universal Soldier-720p MP4 AAC x264 BRRip 1992-CC","uid":7169423,"size":2063399886,"categoryP":"video","categoryS":"hd___movies","magnet":"?xt=urn:btih:631b0d2d797d984be946839411fd486ca6df0811&amp;dn=Universal+Soldier-720p+MP4+AAC+x264+BRRip+1992-CC&amp;tr=udp%3A%2F%2Ftracker.openbittorrent.com%3A80&amp;tr=udp%3A%2F%2Fopen.demonii.com%3A1337&amp;tr=udp%3A%2F%2Ftracker.coppersurfer.tk%3A6969&amp;tr=udp%3A%2F%2Fexodus.desync.com%3A6969","seeders":1,"leechers":0,"uploader":"Caveman44","files":-1,"time":1333906416,"description":"Source: Universal.Soldier.1992.720p.BluRay.x264-HANGOVER \n\nSubs: Arabic, Bulgarian, Danish, Dutch, English, Farsi-Persian, Portuguese, Romanian, Slovenian, Spanish and Swedish.\n\nSample and Screens included.\n\nGeneral\nComplete name                    : Universal Soldier-720p MP4 AAC x264 BRRip 1992-CC.mp4\nFormat                           : MPEG-4\nFormat profile                   : Base Media\nCodec ID                         : isom\nFile size                        : 1.90 GiB\nDuration                         : 1h 43mn\nOverall bit rate                 : 2 619 Kbps\nEncoded date                     : UTC 2012-04-07 08:06:37\n\nVideo\nID                               : 1\nFormat                           : AVC\nFormat/Info                      : Advanced Video Codec\nFormat profile                   : &lt;a class=&quot;__cf_email__&quot; href=&quot;/cdn-cgi/l/email-protection&quot; data-cfemail=&quot;377f5e505f777b041906&quot;&gt;[email&amp;#160;protected]&lt;/a&gt;&lt;script cf-hash='f9e31' type=&quot;text/javascript&quot;&gt;\n/* &lt;![CDATA[ */!function(){try{var t=&quot;currentScript&quot;in document?document.currentScript:function(){for(var t=document.getElementsByTagName(&quot;script&quot;),e=t.length;e--;)if(t[e].getAttribute(&quot;cf-hash&quot;))return t[e]}();if(t&amp;&amp;t.previousSibling){var e,r,n,i,c=t.previousSibling,a=c.getAttribute(&quot;data-cfemail&quot;);if(a){for(e=&quot;&quot;,r=parseInt(a.substr(0,2),16),n=2;a.length-n;n+=2)i=parseInt(a.substr(n,2),16)^r,e+=String.fromCharCode(i);e=document.createTextNode(e),c.parentNode.replaceChild(e,c)}}}catch(u){}}();/* ]]&gt; */&lt;/script&gt;\nFormat settings, CABAC           : Yes\nFormat settings, ReFrames        : 5 frames\nCodec ID                         : avc1\nCodec ID/Info                    : Advanced Video Coding\nDuration                         : 1h 43mn\nBit rate mode                    : Variable\nBit rate                         : 2 230 Kbps\nNominal bit rate                 : 2 213 Kbps\nMaximum bit rate                 : 22.2 Mbps\nWidth                            : 1 280 pixels\nHeight                           : 544 pixels\nDisplay aspect ratio             : 2.35:1\nFrame rate mode                  : Variable\nFrame rate                       : 23.967 fps\nMinimum frame rate               : 7.992 fps\nMaximum frame rate               : 23.981 fps\nResolution                       : 24 bits\nColorimetry                      : 4:2:0\nScan type                        : Progressive\nBits/(Pixel*Frame)               : 0.134\nStream size                      : 1.62 GiB (85%)\nWriting library                  : x264 core 112\n\nAudio\nID                               : 2\nFormat                           : AAC\nFormat/Info                      : Advanced Audio Codec\nFormat version                   : Version 4\nFormat profile                   : LC\nFormat settings, SBR             : No\nCodec ID                         : 40\nDuration                         : 1h 43mn\nBit rate mode                    : Variable\nBit rate                         : 384 Kbps\nMaximum bit rate                 : 631 Kbps\nChannel(s)                       : 6 channels\nChannel positions                : Front: L C R, Rear: L R, LFE\nSampling rate                    : 48.0 KHz\nResolution                       : 16 bits\nStream size                      : 285 MiB (15%)\nLanguage                         : English","torrent":{"xt":"urn:btih:631b0d2d797d984be946839411fd486ca6df0811","amp;dn":"Universal+Soldier-720p+MP4+AAC+x264+BRRip+1992-CC","amp;tr":["udp%3A%2F%2Ftracker.openbittorrent.com%3A80","udp%3A%2F%2Fopen.demonii.com%3A1337","udp%3A%2F%2Ftracker.coppersurfer.tk%3A6969","udp%3A%2F%2Fexodus.desync.com%3A6969"],"infoHash":"631b0d2d797d984be946839411fd486ca6df0811","infoHashBuffer":{"type":"Buffer","data":[99,27,13,45,121,125,152,75,233,70,131,148,17,253,72,108,166,223,8,17]},"announce":[],"urlList":[]}}